solid OpenSCAD_Model
  facet normal -0 0 1
    outer loop
      vertex 8.7 45 9.5
      vertex 12.7 0 9.5
      vertex 12.7 45 9.5
    endloop
  endfacet
  facet normal 0 0 1
    outer loop
      vertex 12.7 0 9.5
      vertex 8.7 45 9.5
      vertex 8.7 0 9.5
    endloop
  endfacet
  facet normal 0 0 -1
    outer loop
      vertex 8.7 0 8.5
      vertex 12.7 45 8.5
      vertex 12.7 0 8.5
    endloop
  endfacet
  facet normal -0 0 -1
    outer loop
      vertex 12.7 45 8.5
      vertex 8.7 0 8.5
      vertex 8.7 45 8.5
    endloop
  endfacet
  facet normal 0 -1 0
    outer loop
      vertex 8.7 0 8.5
      vertex 12.7 0 9.5
      vertex 8.7 0 9.5
    endloop
  endfacet
  facet normal 0 -1 -0
    outer loop
      vertex 12.7 0 9.5
      vertex 8.7 0 8.5
      vertex 12.7 0 8.5
    endloop
  endfacet
  facet normal 1 -0 0
    outer loop
      vertex 12.7 0 9.5
      vertex 12.7 45 8.5
      vertex 12.7 45 9.5
    endloop
  endfacet
  facet normal 1 0 0
    outer loop
      vertex 12.7 45 8.5
      vertex 12.7 0 9.5
      vertex 12.7 0 8.5
    endloop
  endfacet
  facet normal 0 1 -0
    outer loop
      vertex 12.7 45 8.5
      vertex 8.7 45 9.5
      vertex 12.7 45 9.5
    endloop
  endfacet
  facet normal 0 1 0
    outer loop
      vertex 8.7 45 9.5
      vertex 12.7 45 8.5
      vertex 8.7 45 8.5
    endloop
  endfacet
  facet normal -1 0 0
    outer loop
      vertex 8.7 0 8.5
      vertex 8.7 45 9.5
      vertex 8.7 45 8.5
    endloop
  endfacet
  facet normal -1 -0 0
    outer loop
      vertex 8.7 45 9.5
      vertex 8.7 0 8.5
      vertex 8.7 0 9.5
    endloop
  endfacet
endsolid OpenSCAD_Model
